<mxfile host="app.diagrams.net" modified="2023-07-16T04:27:53.236Z" agent="Mozilla/5.0 (Windows NT 10.0; Win64; x64) AppleWebKit/537.36 (KHTML, like Gecko) Chrome/114.0.0.0 Safari/537.36" version="21.6.1" etag="pye-Y50IXX_gHf6Nm3OQ" type="github">
  <diagram name="Page-1" id="vLbtH6XuZUZc5L-ZUaSd">
    <mxGraphModel>
      <root>
        <mxCell id="0" />
        <mxCell id="1" parent="0" />
      </root>
    </mxGraphModel>
  </diagram>
</mxfile>
